<svg width="141" height="51" viewBox="0 0 141 51" fill="none" xmlns="http://www.w3.org/2000/svg">
<g filter="url(#filter0_b_157_76)">
<rect width="140" height="51" rx="25.5" transform="matrix(-1 0 0 1 140 0)" fill="#181818"/>
<rect x="-0.5" y="0.5" width="139" height="50" rx="25" transform="matrix(-1 0 0 1 139 0)" stroke="#303030"/>
<path d="M55.9717 28V19.6H61.2637V20.776H57.2677V23.188H60.9277V24.364H57.2677V26.824H61.3237V28H55.9717ZM65.5308 28.168C64.8988 28.168 64.3388 28.056 63.8508 27.832C63.3628 27.608 62.9788 27.28 62.6988 26.848C62.4268 26.408 62.2908 25.876 62.2908 25.252V24.952H63.5748V25.252C63.5748 25.844 63.7508 26.288 64.1028 26.584C64.4628 26.88 64.9388 27.028 65.5308 27.028C66.1308 27.028 66.5828 26.904 66.8868 26.656C67.1908 26.4 67.3428 26.072 67.3428 25.672C67.3428 25.408 67.2708 25.192 67.1268 25.024C66.9828 24.856 66.7788 24.724 66.5148 24.628C66.2508 24.524 65.9348 24.428 65.5668 24.34L65.1228 24.232C64.5868 24.104 64.1188 23.948 63.7188 23.764C63.3268 23.572 63.0228 23.32 62.8068 23.008C62.5908 22.696 62.4828 22.296 62.4828 21.808C62.4828 21.312 62.6028 20.888 62.8428 20.536C63.0908 20.184 63.4308 19.912 63.8628 19.72C64.2948 19.528 64.8028 19.432 65.3868 19.432C65.9708 19.432 66.4908 19.532 66.9468 19.732C67.4108 19.932 67.7748 20.228 68.0388 20.62C68.3028 21.012 68.4348 21.504 68.4348 22.096V22.528H67.1508V22.096C67.1508 21.736 67.0748 21.444 66.9228 21.22C66.7788 20.996 66.5748 20.832 66.3108 20.728C66.0468 20.624 65.7388 20.572 65.3868 20.572C64.8748 20.572 64.4748 20.68 64.1868 20.896C63.9068 21.104 63.7668 21.396 63.7668 21.772C63.7668 22.028 63.8268 22.24 63.9468 22.408C64.0748 22.568 64.2588 22.7 64.4988 22.804C64.7388 22.908 65.0388 23 65.3988 23.08L65.8428 23.188C66.3868 23.308 66.8668 23.464 67.2828 23.656C67.6988 23.84 68.0268 24.092 68.2668 24.412C68.5068 24.732 68.6268 25.144 68.6268 25.648C68.6268 26.152 68.4988 26.592 68.2428 26.968C67.9948 27.344 67.6388 27.64 67.1748 27.856C66.7108 28.064 66.1628 28.168 65.5308 28.168ZM69.3516 28L71.7516 19.6H74.0316L76.4196 28H75.0876L74.5356 26.02H71.2476L70.6956 28H69.3516ZM71.5716 24.82H74.2116L72.9876 20.404H72.7956L71.5716 24.82ZM77.5576 28V19.6H80.0536L82.3336 27.136H82.5256V19.6H83.8096V28H81.3136L79.0336 20.452H78.8416V28H77.5576ZM88.304 25.492V24.364H91.856V25.492H88.304ZM96.3428 28V19.6H97.6388V26.824H101.683V28H96.3428ZM102.246 28L104.646 19.6H106.926L109.314 28H107.982L107.43 26.02H104.142L103.59 28H102.246ZM104.466 24.82H107.106L105.882 20.404H105.69L104.466 24.82ZM113.296 28.168C112.664 28.168 112.104 28.056 111.616 27.832C111.128 27.608 110.744 27.28 110.464 26.848C110.192 26.408 110.056 25.876 110.056 25.252V24.952H111.34V25.252C111.34 25.844 111.516 26.288 111.868 26.584C112.228 26.88 112.704 27.028 113.296 27.028C113.896 27.028 114.348 26.904 114.652 26.656C114.956 26.4 115.108 26.072 115.108 25.672C115.108 25.408 115.036 25.192 114.892 25.024C114.748 24.856 114.544 24.724 114.28 24.628C114.016 24.524 113.7 24.428 113.332 24.34L112.888 24.232C112.352 24.104 111.884 23.948 111.484 23.764C111.092 23.572 110.788 23.32 110.572 23.008C110.356 22.696 110.248 22.296 110.248 21.808C110.248 21.312 110.368 20.888 110.608 20.536C110.856 20.184 111.196 19.912 111.628 19.72C112.06 19.528 112.568 19.432 113.152 19.432C113.736 19.432 114.256 19.532 114.712 19.732C115.176 19.932 115.54 20.228 115.804 20.62C116.068 21.012 116.2 21.504 116.2 22.096V22.528H114.916V22.096C114.916 21.736 114.84 21.444 114.688 21.22C114.544 20.996 114.34 20.832 114.076 20.728C113.812 20.624 113.504 20.572 113.152 20.572C112.64 20.572 112.24 20.68 111.952 20.896C111.672 21.104 111.532 21.396 111.532 21.772C111.532 22.028 111.592 22.24 111.712 22.408C111.84 22.568 112.024 22.7 112.264 22.804C112.504 22.908 112.804 23 113.164 23.08L113.608 23.188C114.152 23.308 114.632 23.464 115.048 23.656C115.464 23.84 115.792 24.092 116.032 24.412C116.272 24.732 116.392 25.144 116.392 25.648C116.392 26.152 116.264 26.592 116.008 26.968C115.76 27.344 115.404 27.64 114.94 27.856C114.476 28.064 113.928 28.168 113.296 28.168ZM120.897 28.168C120.233 28.168 119.661 28.048 119.181 27.808C118.709 27.568 118.341 27.224 118.077 26.776C117.821 26.32 117.693 25.768 117.693 25.12V19.6H119.001V25.156C119.001 25.748 119.165 26.204 119.493 26.524C119.821 26.844 120.289 27.004 120.897 27.004C121.505 27.004 121.973 26.844 122.301 26.524C122.629 26.204 122.793 25.748 122.793 25.156V19.6H124.089V25.12C124.089 25.768 123.961 26.32 123.705 26.776C123.449 27.224 123.081 27.568 122.601 27.808C122.121 28.048 121.553 28.168 120.897 28.168Z" fill="#FEFEFE"/>
<rect width="43" height="43" rx="21.5" transform="matrix(-1 0 0 1 47 4)" fill="#FEFEFE"/>
<g clip-path="url(#clip0_157_76)">
<path d="M24.9425 14L25.0967 14.524V29.7287L24.9425 29.8826L17.8847 25.7107L24.9425 14Z" fill="#343434"/>
<path d="M24.9421 14L32 25.7107L24.9421 29.8826V22.5027V14Z" fill="#8C8C8C"/>
<path d="M24.9424 31.219L25.0293 31.3249V36.7411L24.9424 36.9949L17.8804 27.0492L24.9424 31.219Z" fill="#3C3C3B"/>
<path d="M24.9421 36.9948V31.2189L32 27.0491L24.9421 36.9948Z" fill="#8C8C8C"/>
<path d="M24.9424 29.8825L17.8846 25.7107L24.9424 22.5027V29.8825Z" fill="#141414"/>
<path d="M32 25.7107L24.9423 29.8825V22.5027L32 25.7107Z" fill="#393939"/>
</g>
</g>
<defs>
<filter id="filter0_b_157_76" x="-13" y="-13" width="167" height="77" filterUnits="userSpaceOnUse" color-interpolation-filters="sRGB">
<feFlood flood-opacity="0" result="BackgroundImageFix"/>
<feGaussianBlur in="BackgroundImageFix" stdDeviation="6.5"/>
<feComposite in2="SourceAlpha" operator="in" result="effect1_backgroundBlur_157_76"/>
<feBlend mode="normal" in="SourceGraphic" in2="effect1_backgroundBlur_157_76" result="shape"/>
</filter>
<clipPath id="clip0_157_76">
<rect width="14.1199" height="23" fill="white" transform="matrix(-1 0 0 1 32 14)"/>
</clipPath>
</defs>
</svg>
