<svg width="43" height="43" viewBox="0 0 43 43" fill="none" xmlns="http://www.w3.org/2000/svg">
<rect width="43" height="43" rx="21.5" transform="matrix(-1 0 0 1 43 0)" fill="#FEFEFE"/>
<g clip-path="url(#clip0_157_79)">
<path d="M20.9425 10L21.0967 10.524V25.7287L20.9425 25.8826L13.8847 21.7107L20.9425 10Z" fill="#343434"/>
<path d="M20.9421 10L28 21.7107L20.9421 25.8826V18.5027V10Z" fill="#8C8C8C"/>
<path d="M20.9424 27.219L21.0293 27.3249V32.7411L20.9424 32.9949L13.8804 23.0492L20.9424 27.219Z" fill="#3C3C3B"/>
<path d="M20.9421 32.9948V27.2189L28 23.0491L20.9421 32.9948Z" fill="#8C8C8C"/>
<path d="M20.9424 25.8825L13.8846 21.7107L20.9424 18.5027V25.8825Z" fill="#141414"/>
<path d="M28 21.7107L20.9423 25.8825V18.5027L28 21.7107Z" fill="#393939"/>
</g>
<defs>
<clipPath id="clip0_157_79">
<rect width="14.1199" height="23" fill="white" transform="matrix(-1 0 0 1 28 10)"/>
</clipPath>
</defs>
</svg>
