<svg width="14" height="14" viewBox="0 0 14 14" fill="none" xmlns="http://www.w3.org/2000/svg">
<path d="M9.21708 4.04833C9.1659 4.04863 9.11516 4.03882 9.06778 4.01946C9.0204 4.00011 8.97731 3.9716 8.94097 3.93555L6.05152 1.04611C5.97881 0.971849 5.93858 0.871744 5.93967 0.767818C5.94076 0.663891 5.9831 0.564656 6.05736 0.491943C6.13162 0.419229 6.23172 0.378994 6.33565 0.380088C6.43958 0.381182 6.53881 0.423515 6.61152 0.497776L9.50486 3.38722C9.55837 3.44181 9.59461 3.51097 9.60904 3.58604C9.62347 3.66112 9.61545 3.73878 9.58599 3.80932C9.55653 3.87986 9.50693 3.94015 9.44339 3.98266C9.37985 4.02517 9.30519 4.04802 9.22875 4.04833H9.21708ZM4.61264 8.65277C4.61293 8.60159 4.60312 8.55086 4.58377 8.50348C4.56442 8.4561 4.5359 8.413 4.49986 8.37666L1.61041 5.48722C1.53718 5.41399 1.43786 5.37285 1.3343 5.37285C1.23074 5.37285 1.13142 5.41399 1.05819 5.48722C0.984962 5.56045 0.943822 5.65977 0.943822 5.76333C0.943822 5.86689 0.984962 5.96621 1.05819 6.03944L3.94764 8.94444C3.98379 8.98089 4.0268 9.00982 4.07419 9.02957C4.12158 9.04931 4.17241 9.05947 4.22375 9.05947C4.27508 9.05947 4.32591 9.04931 4.3733 9.02957C4.42069 9.00982 4.46371 8.98089 4.49986 8.94444C4.53782 8.90628 4.56744 8.86065 4.58685 8.81044C4.60627 8.76024 4.61505 8.70655 4.61264 8.65277ZM8.52875 13.2222H1.16708C1.10584 13.2245 1.04493 13.2123 0.989307 13.1866C0.933686 13.1608 0.884933 13.1223 0.847021 13.0742C0.809109 13.026 0.783113 12.9696 0.771152 12.9095C0.75919 12.8494 0.761602 12.7873 0.778191 12.7283L1.21764 11.1728C1.24116 11.0887 1.29232 11.0149 1.36286 10.9634C1.43341 10.9119 1.51924 10.8857 1.60652 10.8889H8.0893C8.17659 10.8857 8.26242 10.9119 8.33296 10.9634C8.40351 11.0149 8.45467 11.0887 8.47819 11.1728L8.91764 12.7283C8.93337 12.786 8.93558 12.8465 8.92412 12.9052C8.91265 12.9639 8.88781 13.0191 8.85153 13.0667C8.81414 13.1166 8.7653 13.1568 8.70912 13.1838C8.65294 13.2109 8.59108 13.2241 8.52875 13.2222ZM1.67652 12.4444H8.01153L7.77819 11.6667H1.8943L1.67652 12.4444ZM12.8765 10.6711L7.43208 5.22666L8.34986 4.30889L5.64708 1.60611L2.17041 5.08278L4.86541 7.77778L5.7793 6.86778L11.2237 12.3122C11.4425 12.5307 11.739 12.6534 12.0482 12.6534C12.3574 12.6534 12.6539 12.5307 12.8726 12.3122C13.0893 12.0943 13.2112 11.7997 13.2119 11.4925C13.2126 11.1852 13.0921 10.89 12.8765 10.6711ZM3.26708 5.08278L5.64708 2.72222L7.24541 4.32055L4.86541 6.69666L3.26708 5.08278ZM12.3243 11.7717C12.2514 11.8441 12.1529 11.8848 12.0501 11.8848C11.9474 11.8848 11.8488 11.8441 11.776 11.7717L6.33152 6.32722L6.87986 5.77889L12.3243 11.2233C12.3967 11.2962 12.4374 11.3948 12.4374 11.4975C12.4374 11.6002 12.3967 11.6988 12.3243 11.7717Z" fill="#181818"/>
</svg>
